<?xml version="1.0" encoding="UTF-8" standalone="no"?>
<!-- Created with Inkscape (http://www.inkscape.org/) -->

<svg
   xmlns:dc="http://purl.org/dc/elements/1.1/"
   xmlns:cc="http://creativecommons.org/ns#"
   xmlns:rdf="http://www.w3.org/1999/02/22-rdf-syntax-ns#"
   xmlns:svg="http://www.w3.org/2000/svg"
   xmlns="http://www.w3.org/2000/svg"
   xmlns:sodipodi="http://sodipodi.sourceforge.net/DTD/sodipodi-0.dtd"
   xmlns:inkscape="http://www.inkscape.org/namespaces/inkscape"
   inkscape:export-ydpi="27.91"
   inkscape:export-xdpi="27.91"
   inkscape:export-filename="/home/mdiponio/workspace/RigClient-DSO/resources/WI/square.png"
   sodipodi:docname="symbols.svg"
   inkscape:version="0.48.3.1 r9886"
   version="1.1"
   id="svg2"
   height="1052.3622047"
   width="744.09448819">
  <sodipodi:namedview
     id="base"
     pagecolor="#ffffff"
     bordercolor="#666666"
     borderopacity="1.0"
     inkscape:pageopacity="0.0"
     inkscape:pageshadow="2"
     inkscape:zoom="0.98994949"
     inkscape:cx="-37.248031"
     inkscape:cy="920.04847"
     inkscape:document-units="px"
     inkscape:current-layer="layer1"
     showgrid="false"
     inkscape:snap-grids="true"
     inkscape:snap-page="true"
     inkscape:window-width="1638"
     inkscape:window-height="735"
     inkscape:window-x="2092"
     inkscape:window-y="179"
     inkscape:window-maximized="0"
     showguides="true"
     inkscape:guide-bbox="true" />
  <defs
     id="defs4" />
  <metadata
     id="metadata7">
    <rdf:RDF>
      <cc:Work
         rdf:about="">
        <dc:format>image/svg+xml</dc:format>
        <dc:type
           rdf:resource="http://purl.org/dc/dcmitype/StillImage" />
        <dc:title></dc:title>
      </cc:Work>
    </rdf:RDF>
  </metadata>
  <g
     id="layer1"
     inkscape:groupmode="layer"
     inkscape:label="Layer 1">
    <rect
       ry="0.15875696"
       y="93.727417"
       x="83.842659"
       height="128"
       width="128"
       id="rect2985"
       style="fill:#ffffff;fill-opacity:1;stroke:#000000;stroke-width:1;stroke-linecap:round;stroke-linejoin:round;stroke-miterlimit:4;stroke-opacity:1;stroke-dasharray:none" />
    <path
       d="m 148.17856,157.09433 47.85714,0 m -94.78571,-48.03572 47.85714,0 m 46.42858,48.30356 0,-47.85714 m -46.96429,47.94643 0,-47.85714 m -46.78571,47.76786 0,-47.85714"
       style="fill:#ff0000;stroke:#ff0000;stroke-width:2;stroke-linecap:butt;stroke-linejoin:miter;stroke-opacity:1;stroke-miterlimit:4;stroke-dasharray:none"
       id="path2995" />
    <text
       sodipodi:linespacing="120%"
       id="text3766"
       y="201.29074"
       x="90"
       style="font-size:40px;font-style:normal;font-weight:normal;line-height:120.00000477%;letter-spacing:0px;word-spacing:0px;fill:#000000;fill-opacity:1;stroke:none;font-family:Sans"
       xml:space="preserve"><tspan
         style="font-size:38px;font-style:normal;font-variant:normal;font-weight:500;font-stretch:normal;line-height:120.00000477%;font-family:Radis Sans;-inkscape-font-specification:Radis Sans Medium"
         y="201.29074"
         x="90"
         id="tspan3768"
         sodipodi:role="line">Square</tspan></text>
    <rect
       style="fill:#ffffff;fill-opacity:1;stroke:#000000;stroke-width:1;stroke-linecap:round;stroke-linejoin:round;stroke-miterlimit:4;stroke-opacity:1;stroke-dasharray:none"
       id="rect2986"
       width="128"
       height="128"
       x="251.52798"
       y="93.727417"
       ry="0.15875696"
       inkscape:export-filename="/home/mdiponio/workspace/RigClient-DSO/resources/WI/sine.png"
       inkscape:export-xdpi="81.610001"
       inkscape:export-ydpi="81.610001" />
    <text
       xml:space="preserve"
       style="font-size:40px;font-style:normal;font-weight:normal;line-height:120.00000477%;letter-spacing:0px;word-spacing:0px;fill:#000000;fill-opacity:1;stroke:none;font-family:Sans"
       x="283.94931"
       y="202.30089"
       id="text2990"
       sodipodi:linespacing="120%"
       inkscape:export-filename="/home/mdiponio/workspace/RigClient-DSO/resources/WI/sine.png"
       inkscape:export-xdpi="81.610001"
       inkscape:export-ydpi="81.610001"><tspan
         sodipodi:role="line"
         id="tspan2992"
         x="283.94931"
         y="202.30089"
         style="font-size:38px;font-style:normal;font-variant:normal;font-weight:500;font-stretch:normal;line-height:120.00000477%;font-family:Radis Sans;-inkscape-font-specification:Radis Sans Medium">Sine</tspan></text>
    <path
       id="path3290"
       title="t sin(t)"
       d="m 266.1752,133.98501 c 1.17379,-1.6897 2.34758,-3.37928 3.52137,-5.02953 1.17379,-1.65022 2.34758,-3.26073 3.52138,-4.79433 1.17379,-1.53361 2.34758,-2.98973 3.52137,-4.335 1.17379,-1.34525 2.34758,-2.57891 3.52137,-3.67294 1.17379,-1.09403 2.34758,-2.04752 3.52137,-2.83915 1.17379,-0.79163 2.34759,-1.42036 3.52138,-1.87259 1.17379,-0.45221 2.34758,-0.72681 3.52137,-0.81848 1.17379,-0.0916 2.34758,7.2e-4 3.52137,0.2739 1.17379,0.27318 2.34758,0.72822 3.52138,1.35347 1.17379,0.62525 2.34758,1.42167 3.52137,2.36977 1.17379,0.94808 2.34758,2.04865 3.52137,3.27523 1.17379,1.22659 2.34758,2.57985 3.52137,4.02758 1.17379,1.44773 2.34759,2.9904 3.52138,4.59159 1.17379,1.60118 2.34758,3.26112 3.52137,4.94089 1.17379,1.67977 2.34758,3.37937 3.52137,5.05917 1.17379,1.67983 2.34758,3.33961 3.52137,4.9409 1.1738,1.60132 2.34759,3.14366 3.52138,4.5916 1.17379,1.44792 2.34758,2.80074 3.52137,4.02758 1.17379,1.22684 2.34758,2.32685 3.52137,3.27523 1.17379,0.94839 2.34759,1.74417 3.52138,2.36977 1.17379,0.62559 2.34758,1.07993 3.52137,1.35347 1.17379,0.27354 2.34758,0.36519 3.52137,0.2739 1.17379,-0.0913 2.34758,-0.36662 3.52137,-0.81848 1.1738,-0.45187 2.34759,-1.0813 3.52138,-1.87261 1.17379,-0.79129 2.34758,-1.74539 3.52137,-2.83913 1.17379,-1.09376 2.34758,-2.32791 3.52137,-3.67294 1.17379,-1.34505 2.34759,-2.80154 3.52138,-4.335 1.17379,-1.53345 2.34758,-3.14419 3.52137,-4.79435 1.17379,-1.65014 2.34758,-3.33983 3.52137,-5.02952"
       style="fill:none;fill-opacity:1;stroke:#ff0000;stroke-width:2;stroke-linecap:round;stroke-linejoin:round;stroke-miterlimit:4;stroke-opacity:1;stroke-dasharray:none"
       inkscape:connector-curvature="0"
       inkscape:export-filename="/home/mdiponio/workspace/RigClient-DSO/resources/WI/sine.png"
       inkscape:export-xdpi="81.610001"
       inkscape:export-ydpi="81.610001" />
    <rect
       ry="0.15875696"
       y="93.727417"
       x="251.52798"
       height="128"
       width="128"
       id="rect4071"
       style="fill:#ffffff;fill-opacity:1;stroke:#000000;stroke-width:1;stroke-linecap:round;stroke-linejoin:round;stroke-miterlimit:4;stroke-opacity:1;stroke-dasharray:none"
       inkscape:export-filename="/home/mdiponio/workspace/RigClient-DSO/resources/WI/sine.png"
       inkscape:export-xdpi="81.610001"
       inkscape:export-ydpi="81.610001" />
    <text
       sodipodi:linespacing="120%"
       id="text4073"
       y="202.30089"
       x="283.94931"
       style="font-size:40px;font-style:normal;font-weight:normal;line-height:120.00000477%;letter-spacing:0px;word-spacing:0px;fill:#000000;fill-opacity:1;stroke:none;font-family:Sans"
       xml:space="preserve"
       inkscape:export-filename="/home/mdiponio/workspace/RigClient-DSO/resources/WI/sine.png"
       inkscape:export-xdpi="81.610001"
       inkscape:export-ydpi="81.610001"><tspan
         style="font-size:38px;font-style:normal;font-variant:normal;font-weight:500;font-stretch:normal;line-height:120.00000477%;font-family:Radis Sans;-inkscape-font-specification:Radis Sans Medium"
         y="202.30089"
         x="283.94931"
         id="tspan4075"
         sodipodi:role="line">Sine</tspan></text>
    <path
       inkscape:connector-curvature="0"
       style="fill:none;fill-opacity:1;stroke:#ff0000;stroke-width:2;stroke-linecap:round;stroke-linejoin:round;stroke-miterlimit:4;stroke-opacity:1;stroke-dasharray:none"
       d="m 266.1752,133.98501 c 1.17379,-1.6897 2.34758,-3.37928 3.52137,-5.02953 1.17379,-1.65022 2.34758,-3.26073 3.52138,-4.79433 1.17379,-1.53361 2.34758,-2.98973 3.52137,-4.335 1.17379,-1.34525 2.34758,-2.57891 3.52137,-3.67294 1.17379,-1.09403 2.34758,-2.04752 3.52137,-2.83915 1.17379,-0.79163 2.34759,-1.42036 3.52138,-1.87259 1.17379,-0.45221 2.34758,-0.72681 3.52137,-0.81848 1.17379,-0.0916 2.34758,7.2e-4 3.52137,0.2739 1.17379,0.27318 2.34758,0.72822 3.52138,1.35347 1.17379,0.62525 2.34758,1.42167 3.52137,2.36977 1.17379,0.94808 2.34758,2.04865 3.52137,3.27523 1.17379,1.22659 2.34758,2.57985 3.52137,4.02758 1.17379,1.44773 2.34759,2.9904 3.52138,4.59159 1.17379,1.60118 2.34758,3.26112 3.52137,4.94089 1.17379,1.67977 2.34758,3.37937 3.52137,5.05917 1.17379,1.67983 2.34758,3.33961 3.52137,4.9409 1.1738,1.60132 2.34759,3.14366 3.52138,4.5916 1.17379,1.44792 2.34758,2.80074 3.52137,4.02758 1.17379,1.22684 2.34758,2.32685 3.52137,3.27523 1.17379,0.94839 2.34759,1.74417 3.52138,2.36977 1.17379,0.62559 2.34758,1.07993 3.52137,1.35347 1.17379,0.27354 2.34758,0.36519 3.52137,0.2739 1.17379,-0.0913 2.34758,-0.36662 3.52137,-0.81848 1.1738,-0.45187 2.34759,-1.0813 3.52138,-1.87261 1.17379,-0.79129 2.34758,-1.74539 3.52137,-2.83913 1.17379,-1.09376 2.34758,-2.32791 3.52137,-3.67294 1.17379,-1.34505 2.34759,-2.80154 3.52138,-4.335 1.17379,-1.53345 2.34758,-3.14419 3.52137,-4.79435 1.17379,-1.65014 2.34758,-3.33983 3.52137,-5.02952"
       title="t sin(t)"
       id="path4077"
       inkscape:export-filename="/home/mdiponio/workspace/RigClient-DSO/resources/WI/sine.png"
       inkscape:export-xdpi="81.610001"
       inkscape:export-ydpi="81.610001" />
    <rect
       style="fill:#ffffff;fill-opacity:1;stroke:#000000;stroke-width:1;stroke-linecap:round;stroke-linejoin:round;stroke-miterlimit:4;stroke-opacity:1;stroke-dasharray:none"
       id="rect4079"
       width="128"
       height="128"
       x="408.31369"
       y="94.441704"
       ry="0.15875696"
       inkscape:export-filename="/home/mdiponio/workspace/RigClient-DSO/resources/WI/ramp.png"
       inkscape:export-xdpi="27.91"
       inkscape:export-ydpi="27.91" />
    <text
       xml:space="preserve"
       style="font-size:40px;font-style:normal;font-weight:normal;line-height:120.00000477%;letter-spacing:0px;word-spacing:0px;fill:#000000;fill-opacity:1;stroke:none;font-family:Sans"
       x="430.37787"
       y="202.65804"
       id="text4081"
       sodipodi:linespacing="120%"
       inkscape:export-filename="/home/mdiponio/workspace/RigClient-DSO/resources/WI/ramp.png"
       inkscape:export-xdpi="27.91"
       inkscape:export-ydpi="27.91"><tspan
         sodipodi:role="line"
         id="tspan4083"
         x="430.37787"
         y="202.65804"
         style="font-size:38px;font-style:normal;font-variant:normal;font-weight:500;font-stretch:normal;line-height:120.00000477%;font-family:Radis Sans;-inkscape-font-specification:Radis Sans Medium">Ramp</tspan></text>
    <rect
       ry="0.15875696"
       y="244.08455"
       x="406.8851"
       height="128"
       width="128"
       id="rect4087"
       style="fill:#ffffff;fill-opacity:1;stroke:#000000;stroke-width:1;stroke-linecap:round;stroke-linejoin:round;stroke-miterlimit:4;stroke-opacity:1;stroke-dasharray:none"
       inkscape:export-filename="/home/mdiponio/workspace/RigClient-DSO/resources/WI/dc.png"
       inkscape:export-xdpi="27.91"
       inkscape:export-ydpi="27.91" />
    <text
       sodipodi:linespacing="120%"
       id="text4089"
       y="354.08658"
       x="453.23499"
       style="font-size:40px;font-style:normal;font-weight:normal;line-height:120.00000477%;letter-spacing:0px;word-spacing:0px;fill:#000000;fill-opacity:1;stroke:none;font-family:Sans"
       xml:space="preserve"
       inkscape:export-filename="/home/mdiponio/workspace/RigClient-DSO/resources/WI/dc.png"
       inkscape:export-xdpi="27.91"
       inkscape:export-ydpi="27.91"><tspan
         style="font-size:38px;font-style:normal;font-variant:normal;font-weight:500;font-stretch:normal;line-height:120.00000477%;font-family:Radis Sans;-inkscape-font-specification:Radis Sans Medium"
         y="354.08658"
         x="453.23499"
         id="tspan4091"
         sodipodi:role="line">DC</tspan></text>
    <path
       id="path4111"
       style="fill:#ff0000;stroke:#ff0000;stroke-width:2.75458455;stroke-linecap:butt;stroke-linejoin:miter;stroke-miterlimit:4;stroke-opacity:1;stroke-dasharray:none"
       d="m 423.42151,156.85139 48.7998,-44.51408 m 0.20724,46.54273 0,-47.85714 m 49.35716,48.30356 0,-47.85714 m -49.07849,45.73921 48.7998,-44.51408"
       inkscape:connector-curvature="0"
       inkscape:export-filename="/home/mdiponio/workspace/RigClient-DSO/resources/WI/ramp.png"
       inkscape:export-xdpi="27.91"
       inkscape:export-ydpi="27.91" />
    <path
       style="fill:none;stroke:#ff0000;stroke-width:2;stroke-linecap:butt;stroke-linejoin:miter;stroke-opacity:1;stroke-miterlimit:4;stroke-dasharray:none"
       d="m 419.64286,281.6479 98.92857,0.35714"
       id="path4114"
       inkscape:connector-curvature="0"
       inkscape:export-filename="/home/mdiponio/workspace/RigClient-DSO/resources/WI/dc.png"
       inkscape:export-xdpi="27.91"
       inkscape:export-ydpi="27.91" />
    <rect
       style="fill:#ffffff;fill-opacity:1;stroke:#000000;stroke-width:1;stroke-linecap:round;stroke-linejoin:round;stroke-miterlimit:4;stroke-opacity:1;stroke-dasharray:none"
       id="rect4116"
       width="128"
       height="128"
       x="246.17082"
       y="246.9417"
       ry="0.15875696"
       inkscape:export-filename="/home/mdiponio/workspace/RigClient-DSO/resources/WI/noise.png"
       inkscape:export-xdpi="27.91"
       inkscape:export-ydpi="27.91" />
    <text
       xml:space="preserve"
       style="font-size:40px;font-style:normal;font-weight:normal;line-height:120.00000477%;letter-spacing:0px;word-spacing:0px;fill:#000000;fill-opacity:1;stroke:none;font-family:Sans"
       x="268.94925"
       y="354.80087"
       id="text4118"
       sodipodi:linespacing="120%"
       inkscape:export-filename="/home/mdiponio/workspace/RigClient-DSO/resources/WI/noise.png"
       inkscape:export-xdpi="27.91"
       inkscape:export-ydpi="27.91"><tspan
         sodipodi:role="line"
         id="tspan4120"
         x="268.94925"
         y="354.80087"
         style="font-size:38px;font-style:normal;font-variant:normal;font-weight:500;font-stretch:normal;line-height:120.00000477%;font-family:Radis Sans;-inkscape-font-specification:Radis Sans Medium">Noise</tspan></text>
    <path
       style="fill:none;stroke:#ff0000;stroke-width:2;stroke-linecap:butt;stroke-linejoin:miter;stroke-opacity:1;stroke-miterlimit:4;stroke-dasharray:none"
       d="m 262.85714,316.6479 3.21429,-50 3.21428,51.78571 2.5,-50 2.5,52.5 1.42858,-44.28571 3.57142,36.42857 2.85715,-35.71429 3.21428,40 2.14286,-46.07143 3.57143,48.92858 2.85714,-43.92858 3.92857,40.71429 5,-46.07143 4.28572,45.71429 2.14285,-46.42857 5,44.64285 1.78572,-28.92857 1.78571,22.85714 3.21429,-32.85714 2.14286,38.57143 3.92857,-41.78571 2.85714,43.92857 3.57143,-47.5 1.42857,47.14285 3.57143,-43.21428 3.57143,42.14286 2.5,-38.92858 4.28571,41.07143 2.14286,-40 3.92857,35 0,0 0,0"
       id="path4126"
       inkscape:connector-curvature="0"
       inkscape:export-filename="/home/mdiponio/workspace/RigClient-DSO/resources/WI/noise.png"
       inkscape:export-xdpi="27.91"
       inkscape:export-ydpi="27.91" />
  </g>
</svg>
