<?xml version="1.0" encoding="UTF-8" standalone="no"?>
<!-- Created with Inkscape (http://www.inkscape.org/) -->

<svg
   xmlns:dc="http://purl.org/dc/elements/1.1/"
   xmlns:cc="http://creativecommons.org/ns#"
   xmlns:rdf="http://www.w3.org/1999/02/22-rdf-syntax-ns#"
   xmlns:svg="http://www.w3.org/2000/svg"
   xmlns="http://www.w3.org/2000/svg"
   xmlns:sodipodi="http://sodipodi.sourceforge.net/DTD/sodipodi-0.dtd"
   xmlns:inkscape="http://www.inkscape.org/namespaces/inkscape"
   id="svg2"
   version="1.1"
   inkscape:version="0.48.2 r9819"
   width="258"
   height="99.1375"
   xml:space="preserve"
   sodipodi:docname="NEW_labshare_logo_reversed.eps"
   inkscape:export-filename="/home/mdiponio/workspace/WI/public/images/labshare.png"
   inkscape:export-xdpi="68.022263"
   inkscape:export-ydpi="68.022263"><metadata
     id="metadata8"><rdf:RDF><cc:Work
         rdf:about=""><dc:format>image/svg+xml</dc:format><dc:type
           rdf:resource="http://purl.org/dc/dcmitype/StillImage" /><dc:title></dc:title></cc:Work></rdf:RDF></metadata><defs
     id="defs6"><clipPath
       clipPathUnits="userSpaceOnUse"
       id="clipPath34"><path
         d="M 0,0 0,793 2064,793 2064,0 0,0 z"
         id="path36" /></clipPath><clipPath
       clipPathUnits="userSpaceOnUse"
       id="clipPath40"><path
         d="M 855.121,692.336 C 838.91,656.379 836.363,617.715 844.98,582.047 c 0.993,-10.469 13.438,-158.871 -67.546,-209.762 -49.657,31.645 -41.024,93.219 -39.59,101.547 10.867,33.805 2.855,72.356 -24.094,98.934 -38.07,37.57 -99.656,37.152 -137.25,-0.942 -37.598,-38.117 -37.168,-99.679 0.922,-137.258 12.668,-12.492 27.969,-20.695 44.086,-24.796 l -0.356,-0.204 c 0,0 72.676,-19.488 75.348,-82.847 -12.672,-28.574 -7.281,-63.262 16.238,-86.465 30.352,-29.922 79.43,-29.609 109.391,0.742 17.601,17.871 24.641,42.188 21.371,65.274 l 0.012,0 c 34.398,111.058 185.608,146.066 178.778,145.042 l -0.11,0.083 c 71.92,4.296 118.07,40.789 144.91,100.402 38.75,85.976 0.31,187.5 -85.7,226.25 -22.75,10.25 -46.59,15.098 -70.04,15.098 -65.28,0 -127.741,-37.54 -156.229,-100.809"
         id="path42" /></clipPath><clipPath
       clipPathUnits="userSpaceOnUse"
       id="clipPath46"><path
         d="m 1205.84,793.145 0,-582.813 -666.938,0 0,582.813 666.938,0"
         id="path48" /></clipPath><linearGradient
       x1="0"
       y1="0"
       x2="1"
       y2="0"
       gradientUnits="userSpaceOnUse"
       gradientTransform="matrix(0,-57.5127,296.745,0,-61.1353,79.3145)"
       spreadMethod="pad"
       id="linearGradient50"><stop
         style="stop-opacity:1;stop-color:#78d1ed"
         offset="0"
         id="stop52" /><stop
         style="stop-opacity:1;stop-color:#248dbe"
         offset="1"
         id="stop54" /></linearGradient></defs><sodipodi:namedview
     pagecolor="#ffffff"
     bordercolor="#666666"
     borderopacity="1"
     objecttolerance="10"
     gridtolerance="10"
     guidetolerance="10"
     inkscape:pageopacity="0"
     inkscape:pageshadow="2"
     inkscape:window-width="640"
     inkscape:window-height="480"
     id="namedview4"
     showgrid="false"
     inkscape:zoom="1.5310078"
     inkscape:cx="129"
     inkscape:cy="49.568748"
     inkscape:window-x="585"
     inkscape:window-y="246"
     inkscape:window-maximized="0"
     inkscape:current-layer="g10" /><g
     id="g10"
     inkscape:groupmode="layer"
     inkscape:label="ink_ext_XXXXXX"
     transform="matrix(1.25,0,0,-1.25,0,99.1375)"><g
       id="g12"
       transform="scale(0.1,0.1)"><path
         d="m 0,424.527 c 0,23.262 14.5508,38.77 34.8867,38.77 20.3633,0 34.9141,-15.508 34.9141,-38.77 l 0,-298.609 C 69.8008,102.637 55.25,87.1289 34.8867,87.1289 14.5508,87.1289 0,102.637 0,125.918 l 0,298.609"
         style="fill:#243147;fill-opacity:1;fill-rule:nonzero;stroke:none"
         id="path14" /><path
         d="m 1068.15,275.215 c -13.1,0 -39.74,20.371 -62.54,20.371 -12.602,0 -23.751,-5.84 -23.751,-19.395 0,-32.48 121.201,-27.636 121.201,-107.148 0,-46.523 -39.28,-81.9336 -99.38,-81.9336 -39.27,0 -97.442,22.3246 -97.442,53.8286 0,10.664 10.672,31.015 30.051,31.015 27.149,0 39.258,-23.75 72.231,-23.75 21.33,0 27.63,6.797 27.63,19.863 0,32.012 -121.201,27.149 -121.201,107.149 0,48.476 39.27,81.445 94.551,81.445 34.41,0 87.24,-15.996 87.24,-50.41 0,-16.016 -12.12,-31.035 -28.59,-31.035"
         style="fill:#243147;fill-opacity:1;fill-rule:nonzero;stroke:none"
         id="path16" /><path
         d="m 1127.8,424.527 c 0,23.262 14.54,38.77 34.9,38.77 20.37,0 34.9,-15.508 34.9,-38.77 l 0,-95.035 0.97,0 c 14.54,17.949 41.7,24.258 63.52,24.258 54.77,0 95.5,-34.902 95.5,-94.043 l 0,-133.789 c 0,-23.281 -14.54,-38.7891 -34.91,-38.7891 -20.37,0 -34.91,15.5081 -34.91,38.7891 l 0,121.66 c 0,32.481 -20.34,47.988 -45.57,47.988 -28.59,0 -44.6,-20.839 -44.6,-47.988 l 0,-121.66 c 0,-23.281 -14.53,-38.7891 -34.9,-38.7891 -20.36,0 -34.9,15.5081 -34.9,38.7891 l 0,298.609"
         style="fill:#243147;fill-opacity:1;fill-rule:nonzero;stroke:none"
         id="path18" /><path
         d="m 1667.47,315.938 c 0,23.261 18.42,34.902 35.87,34.902 18.42,0 33.92,-6.797 33.92,-29.102 l 0.96,0 c 13.11,19.395 27.17,29.102 48.99,29.102 16.96,0 33.92,-12.129 33.92,-37.324 0,-22.793 -20.86,-24.258 -41.7,-33.946 -20.84,-9.687 -42.17,-18.906 -42.17,-46.523 l 0,-107.149 c 0,-23.261 -14.55,-38.7691 -34.9,-38.7691 -20.37,0 -34.89,15.5081 -34.89,38.7691 l 0,190.04"
         style="fill:#243147;fill-opacity:1;fill-rule:nonzero;stroke:none"
         id="path20" /><path
         d="m 1884.69,198.613 c 4.84,-34.414 33.45,-50.41 65.93,-50.41 35.87,0 60.59,28.106 79,28.106 15.04,0 28.61,-15.02 28.61,-30.059 0,-30.059 -62.05,-59.1211 -113.91,-59.1211 -78.55,0 -130.89,57.1871 -130.89,134.2771 0,70.762 51.38,135.254 125.05,135.254 75.62,0 125.55,-68.848 125.55,-127.031 0,-20.82 -9.19,-31.016 -30.51,-31.016 l -148.83,0 z m 109.54,46.543 c -3.87,30.547 -23.26,53.321 -55.75,53.321 -31.03,0 -51.87,-23.75 -55.26,-53.321 l 111.01,0"
         style="fill:#243147;fill-opacity:1;fill-rule:nonzero;stroke:none"
         id="path22" /><path
         d="m 524.562,87.1289 c -96.05,0 -130.929,78.3011 -130.929,130.9181 l 0,221.109 c 0,19.961 16.187,36.149 36.148,36.149 19.981,0 36.16,-16.188 36.16,-36.149 l 0,-221.109 c 0.25,-13.496 5.231,-58.613 58.621,-58.613 56.918,0 63.938,41.035 64.309,58.671 0,62.696 -50.449,70.313 -65.922,71.153 -19.82,1.074 -35.219,17.93 -34.336,37.734 0.867,19.375 16.699,34.551 35.918,34.551 0.449,0 0.879,-0.02 1.328,-0.039 54.371,-1.934 135.313,-41.816 135.313,-143.75 0,-52.52 -36.391,-130.6251 -136.61,-130.6251"
         style="fill:#243147;fill-opacity:1;fill-rule:nonzero;stroke:none"
         id="path24" /><path
         d="m 234.59,365.137 c -100.219,0 -136.6212,-78.145 -136.6212,-130.645 0,-101.933 80.9412,-141.8162 135.3122,-143.7693 20.16,-0.7618 36.719,14.9023 37.418,34.8633 0.731,19.844 -14.726,36.543 -34.547,37.383 -15.523,0.859 -65.882,8.554 -65.882,71.523 0.371,17.285 7.39,58.34 64.32,58.34 55.793,0 58.609,-48.848 58.609,-58.633 l 0,-110.957 c 0,-19.941 16.192,-36.1326 36.16,-36.1326 19.973,0 36.149,16.1916 36.149,36.1326 l 0,110.957 c 0,52.617 -34.867,130.938 -130.918,130.938"
         style="fill:#243147;fill-opacity:1;fill-rule:nonzero;stroke:none"
         id="path26" /><path
         d="m 1507.94,365.137 c -100.23,0 -136.61,-78.145 -136.61,-130.645 0,-101.933 80.93,-141.8162 135.3,-143.7693 20.26,-0.7618 36.73,14.9023 37.42,34.8633 0.74,19.844 -14.73,36.543 -34.56,37.383 -15.51,0.859 -65.87,8.554 -65.87,71.523 0.36,17.285 7.4,58.34 64.32,58.34 55.78,0 58.6,-48.848 58.6,-58.633 l 0,-110.957 c 0,-19.941 16.19,-36.1326 36.16,-36.1326 19.98,0 36.16,16.1916 36.16,36.1326 l 0,110.957 c 0,52.617 -34.88,130.938 -130.92,130.938"
         style="fill:#243147;fill-opacity:1;fill-rule:nonzero;stroke:none"
         id="path28" /><g
         id="g30"><g
           id="g32"
           clip-path="url(#clipPath34)"><g
             id="g38"
             clip-path="url(#clipPath40)"><g
               id="g44"
               clip-path="url(#clipPath46)"><path
                 d="m 756,218 0,1 -6,0 0,1 -3,0 0,1 -4,0 0,1 -3,0 0,1 -3,0 0,1 -2,0 0,1 -2,0 0,1 -2,0 0,1 -2,0 0,1 -2,0 0,1 -2,0 0,1 -1,0 0,1 -1,0 0,1 -2,0 0,1 -1,0 0,1 -1,0 0,1 -1,0 0,1 -2,0 0,1 -1,0 0,1 -1,0 0,1 -1,0 0,1 -1,0 0,1 -1,0 0,1 -1,0 0,1 -1,0 0,1 -1,0 0,1 -1,0 0,1 -1,0 0,2 -1,0 0,1 -1,0 0,1 -1,0 0,2 -1,0 0,1 -1,0 0,2 -1,0 0,2 -1,0 0,1 -1,0 0,2 -1,0 0,3 -1,0 0,2 -1,0 0,2 -1,0 0,3 -1,0 0,3 -1,0 0,4 -1,0 0,4 -1,0 0,10 -1,0 0,5 1,0 0,12 1,0 0,5 1,0 0,4 1,0 0,3 1,0 0,3 1,0 0,3 1,0 0,5 -1,0 0,7 -1,0 0,4 -1,0 0,4 -1,0 0,3 -1,0 0,3 -1,0 0,2 -1,0 0,2 -1,0 0,2 -1,0 0,2 -1,0 0,2 -1,0 0,1 -1,0 0,2 -1,0 0,2 -1,0 0,1 -1,0 0,1 -1,0 0,2 -1,0 0,1 -1,0 0,1 -1,0 0,1 -1,0 0,1 -1,0 0,2 -1,0 0,1 -1,0 0,1 -1,0 0,1 -1,0 0,1 -1,0 0,1 -2,0 0,1 -1,0 0,1 -1,0 0,1 -1,0 0,1 -1,0 0,1 -1,0 0,1 -2,0 0,1 -1,0 0,1 -1,0 0,1 -2,0 0,1 -1,0 0,1 -2,0 0,1 -1,0 0,1 -2,0 0,1 -2,0 0,1 -2,0 0,1 -1,0 0,1 -2,0 0,1 -2,0 0,1 -2,0 0,1 -2,0 0,1 -2,0 0,1 -3,0 0,1 -2,0 0,1 -3,0 0,1 -2,0 0,1 -3,0 0,1 -3,0 0,1 -3,0 0,1 -3,0 0,1 -3,0 0,1 -3,0 0,1 -2,0 0,1 -2,0 0,1 -2,0 0,1 -2,0 0,1 -2,0 0,1 -2,0 0,1 -1,0 0,1 -2,0 0,1 -1,0 0,1 -2,0 0,1 -2,0 0,1 -1,0 0,1 -1,0 0,1 -1,0 0,1 -2,0 0,1 -1,0 0,1 -1,0 0,1 -1,0 0,1 -1,0 0,1 -1,0 0,1 -1,0 0,1 -1,0 0,1 -1,0 0,1 -1,0 0,1 -1,0 0,1 -1,0 0,2 -1,0 0,1 -1,0 0,1 -1,0 0,1 -1,0 0,1 -1,0 0,2 -1,0 0,1 -1,0 0,1 -1,0 0,2 -1,0 0,2 -1,0 0,2 -1,0 0,2 -1,0 0,1 -1,0 0,2 -1,0 0,2 -1,0 0,2 -1,0 0,2 -1,0 0,3 -1,0 0,3 -1,0 0,4 -1,0 0,3 -1,0 0,3 -1,0 0,7 -1,0 0,9 -1,0 0,10 1,0 0,11 1,0 0,6 1,0 0,3 1,0 0,4 1,0 0,3 1,0 0,4 1,0 0,2 1,0 0,2 1,0 0,2 1,0 0,2 1,0 0,2 1,0 0,2 1,0 0,2 1,0 0,2 1,0 0,2 1,0 0,1 1,0 0,1 1,0 0,2 1,0 0,1 1,0 0,1 1,0 0,1 1,0 0,1 1,0 0,2 1,0 0,1 1,0 0,1 1,0 0,1 1,0 0,2 1,0 0,1 1,0 0,1 2,0 0,1 1,0 0,1 1,0 0,1 1,0 0,1 1,0 0,1 2,0 0,1 1,0 0,1 1,0 0,1 1,0 0,1 2,0 0,1 1,0 0,1 1,0 0,1 2,0 0,1 2,0 0,1 2,0 0,1 2,0 0,1 2,0 0,1 2,0 0,1 1,0 0,1 2,0 0,1 3,0 0,1 3,0 0,1 4,0 0,1 3,0 0,1 3,0 0,1 5,0 0,1 10,0 0,1 15,0 0,-1 11,0 0,-1 4,0 0,-1 3,0 0,-1 3,0 0,-1 4,0 0,-1 3,0 0,-1 3,0 0,-1 2,0 0,-1 1,0 0,-1 2,0 0,-1 2,0 0,-1 2,0 0,-1 2,0 0,-1 2,0 0,-1 2,0 0,-1 1,0 0,-1 2,0 0,-1 1,0 0,-1 1,0 0,-1 1,0 0,-1 2,0 0,-1 1,0 0,-1 1,0 0,-1 1,0 0,-1 1,0 0,-1 2,0 0,-1 1,0 0,-1 1,0 0,-1 1,0 0,-1 1,0 0,-1 1,0 0,-2 1,0 0,-1 1,0 0,-1 1,0 0,-1 1,0 0,-1 1,0 0,-1 1,0 0,-2 1,0 0,-1 1,0 0,-2 1,0 0,-1 1,0 0,-2 1,0 0,-1 1,0 0,-2 1,0 0,-2 1,0 0,-2 1,0 0,-2 1,0 0,-2 1,0 0,-2 1,0 0,-3 1,0 0,-3 1,0 0,-3 1,0 0,-3 1,0 0,-4 1,0 0,-6 1,0 0,-6 1,0 0,-19 -1,0 0,-9 -1,0 0,-4 -1,0 0,-4 -1,0 0,-4 -1,0 0,-7 -1,0 0,-24 1,0 0,-8 1,0 0,-5 1,0 0,-4 1,0 0,-4 1,0 0,-3 1,0 0,-3 1,0 0,-3 1,0 0,-2 1,0 0,-2 1,0 0,-2 1,0 0,-2 1,0 0,-2 1,0 0,-2 1,0 0,-2 1,0 0,-1 1,0 0,-2 1,0 0,-1 1,0 0,-1 1,0 0,-2 1,0 0,-1 1,0 0,-1 1,0 0,-1 1,0 0,-1 1,0 0,-2 1,0 0,-1 1,0 0,-1 1,0 0,-1 2,0 0,-1 1,0 0,-1 1,0 0,-1 1,0 0,-1 1,0 0,-1 1,0 0,-1 2,0 0,-1 1,0 0,-1 2,0 0,-1 1,0 0,-1 1,0 0,1 1,0 0,1 2,0 0,1 1,0 0,1 1,0 0,1 2,0 0,1 1,0 0,1 1,0 0,1 2,0 0,1 1,0 0,1 1,0 0,1 1,0 0,1 1,0 0,1 1,0 0,1 1,0 0,1 1,0 0,1 1,0 0,1 1,0 0,1 1,0 0,1 1,0 0,1 1,0 0,1 1,0 0,1 1,0 0,1 1,0 0,2 1,0 0,1 1,0 0,2 1,0 0,1 1,0 0,1 1,0 0,2 1,0 0,1 1,0 0,2 1,0 0,1 1,0 0,1 1,0 0,2 1,0 0,2 1,0 0,2 1,0 0,2 1,0 0,2 1,0 0,1 1,0 0,2 1,0 0,2 1,0 0,2 1,0 0,3 1,0 0,2 1,0 0,2 1,0 0,3 1,0 0,2 1,0 0,2 1,0 0,3 1,0 0,3 1,0 0,4 1,0 0,3 1,0 0,3 1,0 0,3 1,0 0,4 1,0 0,4 1,0 0,4 1,0 0,5 1,0 0,5 1,0 0,6 1,0 0,5 1,0 0,8 1,0 0,8 1,0 0,11 1,0 0,18 1,0 0,26 -1,0 0,17 -1,0 0,7 -1,0 0,6 -1,0 0,6 -1,0 0,7 -1,0 0,32 1,0 0,6 1,0 0,6 1,0 0,6 1,0 0,6 1,0 0,4 1,0 0,3 1,0 0,3 1,0 0,2 1,0 0,3 1,0 0,3 1,0 0,3 1,0 0,3 1,0 0,3 1,0 0,2 1,0 0,2 1,0 0,2 1,0 0,2 1,0 0,2 1,0 0,2 1,0 0,2 1,0 0,2 1,0 0,1 1,0 0,2 1,0 0,2 1,0 0,2 1,0 0,2 1,0 0,1 1,0 0,2 1,0 0,1 1,0 0,1 1,0 0,2 1,0 0,1 1,0 0,1 1,0 0,1 1,0 0,2 1,0 0,1 1,0 0,1 1,0 0,2 1,0 0,1 1,0 0,1 1,0 0,2 1,0 0,1 1,0 0,1 1,0 0,1 1,0 0,1 1,0 0,1 1,0 0,1 1,0 0,1 1,0 0,1 1,0 0,1 1,0 0,1 1,0 0,1 1,0 0,1 1,0 0,1 1,0 0,1 1,0 0,1 1,0 0,1 1,0 0,1 1,0 0,1 2,0 0,1 1,0 0,1 1,0 0,1 2,0 0,1 1,0 0,1 1,0 0,1 2,0 0,1 1,0 0,1 2,0 0,1 1,0 0,1 1,0 0,1 2,0 0,1 1,0 0,1 1,0 0,1 2,0 0,1 2,0 0,1 2,0 0,1 2,0 0,1 1,0 0,1 2,0 0,1 2,0 0,1 2,0 0,1 2,0 0,1 2,0 0,1 2,0 0,1 1,0 0,1 3,0 0,1 3,0 0,1 3,0 0,1 2,0 0,1 3,0 0,1 3,0 0,1 2,0 0,1 3,0 0,1 4,0 0,1 5,0 0,1 4,0 0,1 5,0 0,1 5,0 0,1 10,0 0,1 36,0 0,-1 6,0 0,-1 7,0 0,-1 5,0 0,-1 3,0 0,-1 4,0 0,-1 4,0 0,-1 4,0 0,-1 3,0 0,-1 2,0 0,-1 3,0 0,-1 2,0 0,-1 3,0 0,-1 2,0 0,-1 3,0 0,-1 2,0 0,-1 2,0 0,-1 2,0 0,-1 2,0 0,-1 2,0 0,-1 2,0 0,-1 2,0 0,-1 2,0 0,-1 1,0 0,-1 2,0 0,-1 1,0 0,-1 2,0 0,-1 1,0 0,-1 2,0 0,-1 1,0 0,-1 2,0 0,-1 1,0 0,-1 2,0 0,-1 1,0 0,-1 1,0 0,-1 1,0 0,-1 2,0 0,-1 1,0 0,-1 1,0 0,-1 1,0 0,-1 2,0 0,-1 1,0 0,-1 1,0 0,-1 1,0 0,-1 1,0 0,-1 1,0 0,-1 1,0 0,-1 1,0 0,-1 1,0 0,-1 1,0 0,-1 1,0 0,-1 1,0 0,-1 1,0 0,-1 1,0 0,-1 1,0 0,-1 1,0 0,-1 1,0 0,-1 1,0 0,-1 1,0 0,-1 1,0 0,-2 1,0 0,-1 1,0 0,-1 1,0 0,-1 1,0 0,-1 1,0 0,-2 1,0 0,-1 1,0 0,-1 1,0 0,-2 1,0 0,-1 1,0 0,-2 1,0 0,-1 1,0 0,-2 1,0 0,-1 1,0 0,-2 1,0 0,-1 1,0 0,-2 1,0 0,-2 1,0 0,-2 1,0 0,-2 1,0 0,-1 1,0 0,-2 1,0 0,-2 1,0 0,-2 1,0 0,-2 1,0 0,-3 1,0 0,-2 1,0 0,-2 1,0 0,-3 1,0 0,-2 1,0 0,-3 1,0 0,-3 1,0 0,-3 1,0 0,-3 1,0 0,-3 1,0 0,-5 1,0 0,-4 1,0 0,-5 1,0 0,-5 1,0 0,-8 1,0 0,-17 1,0 0,-8 -1,0 0,-14 -1,0 0,-7 -1,0 0,-5 -1,0 0,-6 -1,0 0,-4 -1,0 0,-3 -1,0 0,-4 -1,0 0,-3 -1,0 0,-4 -1,0 0,-2 -1,0 0,-3 -1,0 0,-2 -1,0 0,-3 -1,0 0,-2 -1,0 0,-3 -1,0 0,-2 -1,0 0,-2 -1,0 0,-2 -1,0 0,-2 -1,0 0,-2 -1,0 0,-1 -1,0 0,-2 -1,0 0,-2 -1,0 0,-2 -1,0 0,-2 -1,0 0,-2 -1,0 0,-2 -1,0 0,-1 -1,0 0,-2 -1,0 0,-1 -1,0 0,-1 -1,0 0,-2 -1,0 0,-1 -1,0 0,-2 -1,0 0,-1 -1,0 0,-2 -1,0 0,-1 -1,0 0,-2 -1,0 0,-1 -1,0 0,-1 -1,0 0,-1 -1,0 0,-2 -1,0 0,-1 -1,0 0,-1 -1,0 0,-1 -1,0 0,-1 -1,0 0,-1 -1,0 0,-1 -1,0 0,-1 -1,0 0,-2 -1,0 0,-1 -1,0 0,-1 -1,0 0,-1 -1,0 0,-1 -1,0 0,-1 -1,0 0,-1 -2,0 0,-1 -1,0 0,-1 -1,0 0,-1 -1,0 0,-1 -1,0 0,-1 -2,0 0,-1 -1,0 0,-1 -1,0 0,-1 -1,0 0,-1 -1,0 0,-1 -2,0 0,-1 -1,0 0,-1 -1,0 0,-1 -2,0 0,-1 -2,0 0,-1 -1,0 0,-1 -2,0 0,-1 -2,0 0,-1 -1,0 0,-1 -2,0 0,-1 -2,0 0,-1 -1,0 0,-1 -2,0 0,-1 -2,0 0,-1 -2,0 0,-1 -3,0 0,-1 -2,0 0,-1 -2,0 0,-1 -3,0 0,-1 -2,0 0,-1 -3,0 0,-1 -2,0 0,-1 -3,0 0,-1 -4,0 0,-1 -4,0 0,-1 -4,0 0,-1 -4,0 0,-1 -4,0 0,-1 -6,0 0,-1 -8,0 0,-1 -8,0 0,-1 -6,0 0,-1 -3,0 0,-1 -3,0 0,-1 -4,0 0,-1 -3,0 0,-1 -3,0 0,-1 -3,0 0,-1 -2,0 0,-1 -3,0 0,-1 -3,0 0,-1 -2,0 0,-1 -3,0 0,-1 -2,0 0,-1 -3,0 0,-1 -2,0 0,-1 -3,0 0,-1 -2,0 0,-1 -2,0 0,-1 -2,0 0,-1 -3,0 0,-1 -2,0 0,-1 -2,0 0,-1 -2,0 0,-1 -2,0 0,-1 -2,0 0,-1 -2,0 0,-1 -2,0 0,-1 -2,0 0,-1 -2,0 0,-1 -2,0 0,-1 -2,0 0,-1 -2,0 0,-1 -1,0 0,-1 -2,0 0,-1 -2,0 0,-1 -1,0 0,-1 -2,0 0,-1 -2,0 0,-1 -2,0 0,-1 -1,0 0,-1 -2,0 0,-1 -1,0 0,-1 -2,0 0,-1 -1,0 0,-1 -2,0 0,-1 -1,0 0,-1 -2,0 0,-1 -1,0 0,-1 -2,0 0,-1 -1,0 0,-1 -2,0 0,-1 -1,0 0,-1 -1,0 0,-1 -2,0 0,-1 -1,0 0,-1 -1,0 0,-1 -2,0 0,-1 -1,0 0,-1 -1,0 0,-1 -1,0 0,-1 -2,0 0,-1 -1,0 0,-1 -1,0 0,-1 -1,0 0,-1 -1,0 0,-1 -2,0 0,-1 -1,0 0,-1 -1,0 0,-1 -1,0 0,-1 -1,0 0,-1 -1,0 0,-1 -1,0 0,-1 -1,0 0,-1 -1,0 0,-1 -1,0 0,-1 -2,0 0,-2 -1,0 0,-1 -1,0 0,-1 -1,0 0,-1 -1,0 0,-1 -1,0 0,-1 -1,0 0,-1 -1,0 0,-1 -1,0 0,-1 -1,0 0,-2 -1,0 0,-1 -1,0 0,-1 -1,0 0,-1 -1,0 0,-1 -1,0 0,-1 -1,0 0,-2 -1,0 0,-1 -1,0 0,-2 -1,0 0,-1 -1,0 0,-1 -1,0 0,-2 -1,0 0,-1 -1,0 0,-1 -1,0 0,-2 -1,0 0,-1 -1,0 0,-2 -1,0 0,-2 -1,0 0,-1 -1,0 0,-2 -1,0 0,-2 -1,0 0,-2 -1,0 0,-2 -1,0 0,-1 -1,0 0,-2 -1,0 0,-2 -1,0 0,-2 -1,0 0,-3 -1,0 0,-2 -1,0 0,-3 -1,0 0,-2 -1,0 0,-3 -1,0 0,-2 -1,0 0,-3 -1,0 0,-17 1,0 0,-2 -1,0 0,-5 -1,0 0,-5 -1,0 0,-5 -1,0 0,-3 -1,0 0,-2 -1,0 0,-3 -1,0 0,-2 -1,0 0,-2 -1,0 0,-2 -1,0 0,-3 -1,0 0,-1 -1,0 0,-2 -1,0 0,-1 -1,0 0,-1 -1,0 0,-2 -1,0 0,-1 -1,0 0,-1 -1,0 0,-2 -1,0 0,-1 -1,0 0,-1 -1,0 0,-1 -1,0 0,-2 -2,0 0,-1 -1,0 0,-1 -1,0 0,-1 -1,0 0,-1 -1,0 0,-1 -2,0 0,-1 -1,0 0,-1 -1,0 0,-1 -1,0 0,-1 -1,0 0,-1 -2,0 0,-1 -2,0 0,-1 -2,0 0,-1 -2,0 0,-1 -2,0 0,-1 -2,0 0,-1 -2,0 0,-1 -3,0 0,-1 -3,0 0,-1 -3,0 0,-1 -4,0 0,-1 -6,0 0,-1"
                 style="fill:url(#linearGradient50);fill-opacity:1;fill-rule:nonzero;stroke:none"
                 id="path56" /></g></g></g></g><path
         d="m 829.336,135.605 c 0,-33.144 -26.871,-59.9995 -60,-59.9995 -33.129,0 -60,26.8555 -60,59.9995 0,33.145 26.871,60 60,60 33.129,0 60,-26.855 60,-60"
         style="fill:#5a99c1;fill-opacity:1;fill-rule:nonzero;stroke:none"
         id="path58" /><path
         d="M 727.891,39.2773 C 727.551,17.2461 709.41,-0.332031 687.383,0.0195312 665.371,0.371094 647.793,18.4961 648.129,40.5273 c 0.351,22.0313 18.492,39.5899 40.516,39.2383 22.015,-0.332 39.597,-18.4765 39.246,-40.4883"
         style="fill:#5a99c1;fill-opacity:1;fill-rule:nonzero;stroke:none"
         id="path60" /></g></g></svg>